<svg width="1996" height="1542" viewBox="0 0 1996 1542" fill="none" xmlns="http://www.w3.org/2000/svg">
<g clip-path="url(#clip0_1405_1413)" filter="url(#filter0_d_1405_1413)">
<rect width="1920" height="1466" transform="translate(24 7)" fill="url(#paint0_linear_1405_1413)"/>
<ellipse cx="57.3594" cy="564.548" rx="337.764" ry="325.701" fill="url(#paint1_radial_1405_1413)" fill-opacity="0.62"/>
<path d="M1258.97 437.059C1258.97 614.927 1109.44 759.117 924.987 759.117C740.531 759.117 591 614.927 591 437.059C591 259.191 740.531 115 924.987 115C1109.44 115 1258.97 259.191 1258.97 437.059Z" fill="url(#paint2_radial_1405_1413)" fill-opacity="0.62"/>
<path d="M360 260C360 357.754 238.221 437 88 437C-62.2215 437 -184 357.754 -184 260C-184 162.246 -62.2215 83 88 83C238.221 83 360 162.246 360 260Z" fill="url(#paint3_radial_1405_1413)" fill-opacity="0.62"/>
<ellipse cx="1584" cy="802" rx="272" ry="177" fill="url(#paint4_radial_1405_1413)" fill-opacity="0.62"/>
<ellipse cx="1550" cy="260" rx="272" ry="177" fill="url(#paint5_radial_1405_1413)" fill-opacity="0.62"/>
<path d="M495 1143C495 1325.25 370.087 1473 216 1473C61.9126 1473 -63 1325.25 -63 1143C-63 960.746 61.9126 813 216 813C370.087 813 495 960.746 495 1143Z" fill="url(#paint6_radial_1405_1413)" fill-opacity="0.62"/>
<ellipse cx="863" cy="1264" rx="272" ry="177" fill="url(#paint7_radial_1405_1413)" fill-opacity="0.62"/>
</g>
<defs>
<filter id="filter0_d_1405_1413" x="0" y="0" width="1996" height="1542" filterUnits="userSpaceOnUse" color-interpolation-filters="sRGB">
<feFlood flood-opacity="0" result="BackgroundImageFix"/>
<feColorMatrix in="SourceAlpha" type="matrix" values="0 0 0 0 0 0 0 0 0 0 0 0 0 0 0 0 0 0 127 0" result="hardAlpha"/>
<feOffset dx="14" dy="31"/>
<feGaussianBlur stdDeviation="19"/>
<feComposite in2="hardAlpha" operator="out"/>
<feColorMatrix type="matrix" values="0 0 0 0 0.0936903 0 0 0 0 0.0911806 0 0 0 0 0.216667 0 0 0 0.58 0"/>
<feBlend mode="normal" in2="BackgroundImageFix" result="effect1_dropShadow_1405_1413"/>
<feBlend mode="normal" in="SourceGraphic" in2="effect1_dropShadow_1405_1413" result="shape"/>
</filter>
<linearGradient id="paint0_linear_1405_1413" x1="960" y1="0" x2="960" y2="1466" gradientUnits="userSpaceOnUse">
<stop offset="0.163947" stop-color="#010208"/>
<stop offset="0.205128" stop-color="#010206"/>
<stop offset="0.247863" stop-color="#040008"/>
<stop offset="0.304584" stop-color="#010101"/>
<stop offset="0.341103" stop-color="#010101"/>
<stop offset="0.362082" stop-color="#010101"/>
<stop offset="1" stop-color="#010101"/>
</linearGradient>
<radialGradient id="paint1_radial_1405_1413" cx="0" cy="0" r="1" gradientUnits="userSpaceOnUse" gradientTransform="translate(57.3594 564.548) rotate(68.7391) scale(260.41 270.055)">
<stop stop-color="#AA14F0" stop-opacity="0.5"/>
<stop offset="1" stop-color="#AA14F0" stop-opacity="0"/>
</radialGradient>
<radialGradient id="paint2_radial_1405_1413" cx="0" cy="0" r="1" gradientUnits="userSpaceOnUse" gradientTransform="translate(956.434 446.353) rotate(68.7391) scale(257.498 267.035)">
<stop stop-color="#AA14F0" stop-opacity="0.5"/>
<stop offset="1" stop-color="#AA14F0" stop-opacity="0"/>
</radialGradient>
<radialGradient id="paint3_radial_1405_1413" cx="0" cy="0" r="1" gradientUnits="userSpaceOnUse" gradientTransform="translate(115 259.139) rotate(60.0331) scale(152.239 202.161)">
<stop stop-color="#AA14F0" stop-opacity="0.5"/>
<stop offset="1" stop-color="#AA14F0" stop-opacity="0"/>
</radialGradient>
<radialGradient id="paint4_radial_1405_1413" cx="0" cy="0" r="1" gradientUnits="userSpaceOnUse" gradientTransform="translate(1584 802) rotate(60.0331) scale(152.239 202.161)">
<stop stop-color="#AA14F0" stop-opacity="0.5"/>
<stop offset="1" stop-color="#AA14F0" stop-opacity="0"/>
</radialGradient>
<radialGradient id="paint5_radial_1405_1413" cx="0" cy="0" r="1" gradientUnits="userSpaceOnUse" gradientTransform="translate(1550 260) rotate(60.0331) scale(152.239 202.161)">
<stop stop-color="#AA14F0" stop-opacity="0.5"/>
<stop offset="1" stop-color="#AA14F0" stop-opacity="0"/>
</radialGradient>
<radialGradient id="paint6_radial_1405_1413" cx="0" cy="0" r="1" gradientUnits="userSpaceOnUse" gradientTransform="translate(211.73 1106.72) rotate(72.4002) scale(257.965 228.158)">
<stop stop-color="#AA14F0" stop-opacity="0.5"/>
<stop offset="1" stop-color="#AA14F0" stop-opacity="0"/>
</radialGradient>
<radialGradient id="paint7_radial_1405_1413" cx="0" cy="0" r="1" gradientUnits="userSpaceOnUse" gradientTransform="translate(863 1264) rotate(60.0331) scale(152.239 202.161)">
<stop stop-color="#AA14F0" stop-opacity="0.5"/>
<stop offset="1" stop-color="#AA14F0" stop-opacity="0"/>
</radialGradient>
<clipPath id="clip0_1405_1413">
<rect width="1920" height="1466" fill="white" transform="translate(24 7)"/>
</clipPath>
</defs>
</svg>
